<?xml version="1.0" encoding="iso-8859-1"?>
<!-- Generator: Adobe Illustrator 19.0.0, SVG Export Plug-In . SVG Version: 6.00 Build 0)  -->
<svg version="1.1" id="Layer_1" xmlns="http://www.w3.org/2000/svg" x="0px" y="0px"
     viewBox="0 0 512 512" style="enable-background:new 0 0 512 512;" xml:space="preserve">
<polygon style="fill:#FFCD02;" points="203.985,315.215 288.125,315.215 343.982,234.391 203.985,234.391 "/>
  <polygon style="fill:#6D6E71;" points="114.543,127.846 114.543,227.89 60.962,227.89 72.47,127.846 "/>
  <polygon style="fill:#ECF0F1;" points="214.587,315.219 50.908,315.219 60.962,227.89 114.543,227.89 114.543,127.846
	187.012,127.846 "/>
  <path style="fill:#6D6E71;" d="M316.053,315.215H50.908c-19.036,0-34.469,15.432-34.469,34.469l0,0
	c0,19.036,15.433,34.469,34.469,34.469h265.145c19.036,0,34.469-15.433,34.469-34.469l0,0
	C350.522,330.648,335.09,315.215,316.053,315.215z"/>
  <polygon style="fill:#FFCD02;" points="114.543,227.89 114.543,315.219 50.908,315.219 10.606,284.812 10.606,227.89 "/>
  <path style="fill:#FFA800;" d="M501.394,384.153h-58.778c-19.329,0-34.999-15.67-34.999-34.999l0,0
	c0-19.329,15.67-34.999,34.999-34.999h2.511L501.394,384.153z"/>
  <g>
	<path style="fill:#231F20;" d="M509.66,377.51l-56.266-69.998c-2.012-2.504-5.054-3.961-8.266-3.961h-2.513
		c-8.584,0-16.621,2.387-23.486,6.529l-97.942-123.765c-3.634-4.593-10.305-5.371-14.898-1.736
		c-4.593,3.635-5.37,10.306-1.736,14.898l19.237,24.31H281.76V192.77l6.484-11.903c2.803-5.144,0.905-11.585-4.239-14.387
		c-5.143-2.803-11.585-0.906-14.387,4.239l-7.777,14.274c-0.848,1.557-1.293,3.301-1.293,5.074v33.718h-14.848v-18.693
		c0-5.857-4.748-10.606-10.606-10.606c-5.858,0-10.606,4.749-10.606,10.606v18.693h-12.638l-14.346-97.483
		c-0.766-5.204-5.232-9.062-10.493-9.062H72.468c-5.389,0-9.921,4.041-10.537,9.394l-10.427,90.651H10.606
		C4.748,217.286,0,222.035,0,227.891v56.921c0,3.328,1.562,6.462,4.218,8.466l23.531,17.754
		c-13.118,7.889-21.916,22.261-21.916,38.652c0,24.855,20.22,45.075,45.075,45.075h265.145c21.201,0,39.02-14.717,43.803-34.469
		h38.535c4.984,19.781,22.918,34.469,44.224,34.469h58.778c4.082,0,7.801-2.342,9.564-6.023
		C512.722,385.056,512.217,380.69,509.66,377.51z M398.147,339.079h-13.155V301.12l18.937,23.93
		C401.264,329.308,399.289,334.035,398.147,339.079z M363.779,274.315v64.763h-3.923c-4.783-19.752-22.602-34.469-43.803-34.469
		h-7.706l37.017-53.565L363.779,274.315z M323.761,244.996l-41.198,59.613h-58.816l-8.773-59.613L323.761,244.996L323.761,244.996z
		 M196.791,267.135H171.46c-5.858,0-10.606,4.749-10.606,10.606s4.748,10.606,10.606,10.606h28.452l2.394,16.263h-77.157V138.452
		h52.705L196.791,267.135z M81.926,138.452h22.011v78.833H72.858L81.926,138.452z M103.937,238.496v66.113H54.456L24.701,282.16
		h9.061c5.858,0,10.606-4.749,10.606-10.606s-4.748-10.606-10.606-10.606h-12.55v-22.452H103.937z M316.053,373.547H50.908
		c-13.159,0-23.863-10.706-23.863-23.863c0-13.143,10.679-23.837,23.816-23.862c0.016,0,0.032,0.002,0.047,0.002l265.145-0.003
		c13.158,0,23.863,10.706,23.863,23.863C339.916,362.842,329.211,373.547,316.053,373.547z M442.616,373.547
		c-13.451,0-24.393-10.942-24.393-24.393c0-12.617,9.628-23.028,21.923-24.269l39.116,48.663H442.616z"/>
    <path style="fill:#231F20;" d="M68.23,282.16h1.061c5.858,0,10.606-4.749,10.606-10.606s-4.748-10.606-10.606-10.606H68.23
		c-5.858,0-10.606,4.749-10.606,10.606S62.374,282.16,68.23,282.16z"/>
</g>
  <g>
</g>
  <g>
</g>
  <g>
</g>
  <g>
</g>
  <g>
</g>
  <g>
</g>
  <g>
</g>
  <g>
</g>
  <g>
</g>
  <g>
</g>
  <g>
</g>
  <g>
</g>
  <g>
</g>
  <g>
</g>
  <g>
</g>
</svg>
