<?xml version="1.0" encoding="iso-8859-1"?>
<!-- Generator: Adobe Illustrator 19.0.0, SVG Export Plug-In . SVG Version: 6.00 Build 0)  -->
<svg version="1.1" id="Layer_1" xmlns="http://www.w3.org/2000/svg" xmlns:xlink="http://www.w3.org/1999/xlink" x="0px" y="0px"
	 viewBox="0 0 512 512" style="enable-background:new 0 0 512 512;" xml:space="preserve">
<g transform="translate(0 -1)">
	<path style="fill:#4C8056;" d="M264.533,380.733c-6.238,0-12.109,1.408-17.451,3.814c0.111-1.28,0.384-2.509,0.384-3.814
		c0-23.561-19.106-42.667-42.667-42.667c-11.878,0-22.605,4.873-30.345,12.706C166.34,333.211,148.617,321,128,321
		c-28.279,0-51.2,22.921-51.2,51.2c0,3.311,0.341,6.537,0.939,9.668c-3.055-0.691-6.204-1.135-9.472-1.135
		c-23.561,0-42.667,19.106-42.667,42.667c0,23.561,19.106,42.667,42.667,42.667h196.267c23.561,0,42.667-19.106,42.667-42.667
		C307.2,399.84,288.094,380.733,264.533,380.733"/>
	<g>
		<path style="fill:#71C285;" d="M443.733,380.733c-2.099,0-4.105,0.324-6.127,0.614c3.883-7.919,6.127-16.794,6.127-26.214
			c0-32.99-26.743-59.733-59.733-59.733c-30.396,0-55.433,22.716-59.187,52.087c-7.74-10.829-20.352-17.954-34.679-17.954
			c-23.561,0-42.667,19.106-42.667,42.667c0,4.011,0.734,7.817,1.766,11.503c4.762-1.86,9.882-2.97,15.3-2.97
			c23.561,0,42.667,19.106,42.667,42.667c0,13.909-6.758,26.155-17.067,33.937l-8.533,8.73h162.133
			c23.561,0,42.667-19.106,42.667-42.667C486.4,399.84,467.294,380.733,443.733,380.733"/>
		<path style="fill:#71C285;" d="M162.133,474.6c-4.719,0-8.533-3.814-8.533-8.533v-59.733c0-4.719,3.814-8.533,8.533-8.533
			c4.719,0,8.533,3.814,8.533,8.533v59.733C170.667,470.786,166.852,474.6,162.133,474.6"/>
		<path style="fill:#71C285;" d="M162.133,474.6c-2.185,0-4.369-0.836-6.033-2.5c-3.337-3.337-3.337-8.73,0-12.066l42.667-42.667
			c3.337-3.337,8.73-3.337,12.066,0c3.337,3.337,3.337,8.73,0,12.066L168.166,472.1C166.502,473.764,164.318,474.6,162.133,474.6"/>
		<path style="fill:#71C285;" d="M162.133,474.6c-2.185,0-4.369-0.836-6.033-2.5l-42.667-42.667c-3.337-3.337-3.337-8.73,0-12.066
			c3.337-3.337,8.73-3.337,12.066,0l42.667,42.667c3.337,3.337,3.337,8.73,0,12.066C166.502,473.764,164.318,474.6,162.133,474.6"/>
	</g>
	<g>
		<path style="fill:#4C8056;" d="M384,474.6c-4.719,0-8.533-3.814-8.533-8.533v-59.733c0-4.719,3.814-8.533,8.533-8.533
			c4.719,0,8.533,3.814,8.533,8.533v59.733C392.533,470.786,388.719,474.6,384,474.6"/>
		<path style="fill:#4C8056;" d="M384,474.6c-2.185,0-4.369-0.836-6.033-2.5c-3.337-3.337-3.337-8.73,0-12.066l42.667-42.667
			c3.337-3.337,8.73-3.337,12.066,0c3.337,3.337,3.337,8.73,0,12.066L390.033,472.1C388.369,473.764,386.185,474.6,384,474.6"/>
		<path style="fill:#4C8056;" d="M384,474.6c-2.185,0-4.369-0.836-6.033-2.5L335.3,429.433c-3.337-3.337-3.337-8.73,0-12.066
			c3.337-3.337,8.73-3.337,12.066,0l42.667,42.667c3.337,3.337,3.337,8.73,0,12.066C388.369,473.764,386.185,474.6,384,474.6"/>
	</g>
	<path style="fill:#BDC3C7;" d="M404.267,143.933c12.322,0,22.4,11.042,22.4,24.533c0,13.491-10.078,24.533-22.4,24.533h-96h-3.2
		c-17.673,0-32-15.693-32-35.046s14.327-35.046,32-35.046c0,0,16.93-32.307,53.333-32.307c22.801,0,42.667,16.973,42.667,53.333
		H404.267z"/>
	<g>
		<path style="fill:#95A5A5;" d="M136.533,107.667c-4.719,0-8.533-3.814-8.533-8.533c0-32.93,26.803-59.733,59.733-59.733
			c4.719,0,8.533,3.814,8.533,8.533s-3.814,8.533-8.533,8.533c-23.526,0-42.667,19.14-42.667,42.667
			C145.067,103.852,141.252,107.667,136.533,107.667"/>
		<path style="fill:#95A5A5;" d="M136.533,107.667c-4.719,0-8.533-3.814-8.533-8.533C128,80.309,112.691,65,93.867,65
			c-4.719,0-8.533-3.814-8.533-8.533s3.814-8.533,8.533-8.533c28.237,0,51.2,22.963,51.2,51.2
			C145.067,103.852,141.252,107.667,136.533,107.667"/>
		<path style="fill:#95A5A5;" d="M503.467,474.6H8.533C3.814,474.6,0,470.786,0,466.067c0-4.719,3.814-8.533,8.533-8.533h494.933
			c4.719,0,8.533,3.814,8.533,8.533C512,470.786,508.186,474.6,503.467,474.6"/>
	</g>
</g>
<g>
</g>
<g>
</g>
<g>
</g>
<g>
</g>
<g>
</g>
<g>
</g>
<g>
</g>
<g>
</g>
<g>
</g>
<g>
</g>
<g>
</g>
<g>
</g>
<g>
</g>
<g>
</g>
<g>
</g>
</svg>
